<svg xmlns="http://www.w3.org/2000/svg" version="1.1" xmlns:xlink="http://www.w3.org/1999/xlink" xmlns:svgjs="http://svgjs.dev/svgjs" width="1600" height="900" preserveAspectRatio="none" viewBox="0 0 1600 900"><g mask="url(&quot;#SvgjsMask1021&quot;)" fill="none"><rect width="1600" height="900" x="0" y="0" fill="#0e2a47"></rect><path d="M12 900L912 0L1351.5 0L451.5 900z" fill="url(&quot;#SvgjsLinearGradient1022&quot;)"></path><path d="M604 900L1504 0L2278 0L1378 900z" fill="url(&quot;#SvgjsLinearGradient1022&quot;)"></path><path d="M1503 900L603 0L375 0L1275 900z" fill="url(&quot;#SvgjsLinearGradient1023&quot;)"></path><path d="M993 900L93 0L-31.5 0L868.5 900z" fill="url(&quot;#SvgjsLinearGradient1023&quot;)"></path><path d="M1101.1595108833524 900L1600 401.1595108833524L1600 900z" fill="url(&quot;#SvgjsLinearGradient1022&quot;)"></path><path d="M0 900L498.8404891166476 900L 0 401.1595108833524z" fill="url(&quot;#SvgjsLinearGradient1023&quot;)"></path></g><defs><mask id="SvgjsMask1021"><rect width="1600" height="900" fill="#ffffff"></rect></mask><linearGradient x1="0%" y1="100%" x2="100%" y2="0%" id="SvgjsLinearGradient1022"><stop stop-color="rgba(15, 70, 185, 0.2)" offset="0"></stop><stop stop-opacity="0" stop-color="rgba(15, 70, 185, 0.2)" offset="0.66"></stop></linearGradient><linearGradient x1="100%" y1="100%" x2="0%" y2="0%" id="SvgjsLinearGradient1023"><stop stop-color="rgba(15, 70, 185, 0.2)" offset="0"></stop><stop stop-opacity="0" stop-color="rgba(15, 70, 185, 0.2)" offset="0.66"></stop></linearGradient></defs></svg>